<svg width="33" height="25" viewBox="0 0 33 25" fill="none" xmlns="http://www.w3.org/2000/svg">
<path fill-rule="evenodd" clip-rule="evenodd" d="M32.8576 3.32603C32.9505 3.68941 33 4.07091 33 4.46429V20.5357C33 23.0013 31.056 25 28.6579 25H4.3421C1.94403 25 0 23.0013 0 20.5357V4.46429C0 1.99873 1.94403 0 4.34211 0H28.6579C30.019 0 31.2339 0.643871 32.03 1.65155C32.4127 2.13599 32.6987 2.70454 32.8576 3.32603ZM4.34211 1.78571H28.6579C29.5398 1.78571 30.3194 2.23625 30.7907 2.92566L19.5704 14.4617C17.8747 16.2051 15.1254 16.2051 13.4297 14.4617L2.20931 2.9256C2.68068 2.23622 3.46022 1.78571 4.34211 1.78571ZM1.73684 4.96522V20.5357C1.73684 22.015 2.90326 23.2143 4.3421 23.2143H28.6579C30.0967 23.2143 31.2632 22.015 31.2632 20.5357V4.96532L20.7985 15.7244C18.4245 18.1652 14.5756 18.1652 12.2016 15.7244L1.73684 4.96522Z" fill="white"/>
</svg>
