<svg width="33" height="33" viewBox="0 0 33 33" fill="none" xmlns="http://www.w3.org/2000/svg">
<path d="M24.9089 8.26229C23.4276 7.29645 22.3585 5.7511 22.0249 3.94964C21.9529 3.56042 21.9133 3.15985 21.9133 2.75H17.1855L17.1779 21.6974C17.0984 23.8192 15.3521 25.5222 13.2113 25.5222C12.5459 25.5222 11.9194 25.3558 11.3678 25.0656C10.1028 24.3999 9.23709 23.0739 9.23709 21.548C9.23709 19.3566 11.02 17.5736 13.2113 17.5736C13.6204 17.5736 14.0128 17.6411 14.3839 17.7574V12.9308C13.9998 12.8785 13.6095 12.8458 13.2113 12.8458C8.4129 12.8458 4.50928 16.7496 4.50928 21.548C4.50928 24.4921 5.98019 27.0974 8.22423 28.6728C9.63771 29.6652 11.357 30.25 13.2113 30.25C18.0097 30.25 21.9133 26.3464 21.9133 21.548V11.9401C23.7676 13.271 26.0394 14.0553 28.4909 14.0553V9.32744C27.1704 9.32744 25.9404 8.93486 24.9089 8.26229Z" fill="white"/>
</svg>
